<svg id="moj-svg"
     width="100%"
     height="670"
     viewBox="-5 -5 1510 680"
     preserveAspectRatio="none"
     xmlns="http://www.w3.org/2000/svg"
     style="overflow: visible;">

  <!-- WYPEŁNIENIE -->
  <path d="
    M 15 0 
    H 1485 
    Q 1500 0 1500 15 
    V 655 
    Q 1500 670 1485 670 

    H 485 
    A 15 15 0 0 1 470 655 

    V 315 
    A 15 15 0 0 1 485 300 

    H 15 
    Q 0 300 0 285 
    V 15 
    Q 0 0 15 0 
    Z" 
    fill="black"/>

  <!-- OBRYS -->
  <path d="
    M 15 0 
    H 1485 
    Q 1500 0 1500 15 
    V 655 
    Q 1500 670 1485 670 

    H 485 
    A 15 15 0 0 1 470 655 

    V 315 
    A 15 15 0 0 1 485 300 

    H 15 
    Q 0 300 0 285 
    V 15 
    Q 0 0 15 0 
    Z" 
    fill="none"
    stroke="white"
    stroke-width="1.2"
    stroke-linejoin="round"
    stroke-linecap="round"
    vector-effect="non-scaling-stroke"
    transform="translate(0.5,0.5)"/>

</svg>
